# xmcd
#
# Track frame offsets:
#   150
#   24977
#   52323
#   68512
#   91192
#   124420
#   144047
#   159115
#   179124
#   209109
#   234059
#   256870
#   283640
#   300584
#   318421
#   337591
#
# Disc length: 4795 seconds
#
# Revision: 0
# Processed by: cddbd v1.5.1PL0 Copyright (c) Steve Scherf et al.
# Submitted via: GXTranscoder 2.0.1939
#
DISCID=d512b910
DTITLE=Kenny G - Best of
DYEAR=1900
DGENRE=Blues
TTITLE0=Going home
TTITLE1=All the way, one for my baby
TTITLE2=Baby G
TTITLE3=Forever in love
TTITLE4=Havana
TTITLE5=How could an angel bread my heart
TTITLE6=Loving you
TTITLE7=My heart will go on
TTITLE8=Sentimental
TTITLE9=Silhouette
TTITLE10=Songbird
TTITLE11=The moment
TTITLE12=Theme from Dying Young
TTITLE13=You send me
TTITLE14=By the time this night is over
TTITLE15=Every time I close my eyes
EXTD=
EXTT0=
EXTT1=
EXTT2=
EXTT3=
EXTT4=
EXTT5=
EXTT6=
EXTT7=
EXTT8=
EXTT9=
EXTT10=
EXTT11=
EXTT12=
EXTT13=
EXTT14=
EXTT15=
PLAYORDER=
